<svg xmlns="http://www.w3.org/2000/svg" viewBox="0 0 65.13 70"><title>logo</title><polygon points="1.6 21.27 12.45 31.9 22.4 21.74 22.43 0 1.6 21.27" style="fill:#a29588"/><polygon points="0 22.91 48.06 69.96 26.39 70 0.23 44.38 0 22.91" style="fill:#004259"/><polygon points="38.62 57.51 49.34 46.56 49.66 68.33 38.62 57.51" style="fill:#775e53"/><polygon points="51.91 28.74 52.3 65.81 65.13 52.71 65.01 41.58 51.91 28.74" style="fill:#004259"/><path d="M44.82,30.52a39.2,39.2,0,0,0-4.09-5.12C37,21.15,34.49,11.92,34.49,11.92s-0.77,9.65-3.61,14.4c-0.81,1.37-1.72,2.82-2.44,4.26A9.73,9.73,0,1,0,44.82,30.52Z" style="fill:#00aeef"/></svg>