<svg><polygon points="9.31 38.65 26.71 55.69 42.65 39.4 42.7 4.55 9.31 38.65" style="fill:#a29588"/><polygon points="6.75 41.27 83.8 116.7 49.05 116.76 7.11 75.7 6.75 41.27" style="fill:#004259"/><polygon points="68.65 96.75 85.84 79.19 86.36 114.08 68.65 96.75" style="fill:#775e53"/><polygon points="89.96 50.62 90.59 110.04 111.15 89.05 110.96 71.21 89.96 50.62" style="fill:#004259"/><path d="M78.6,53.48C77,50.76,74.41,48,72,45.27c-5.91-6.83-10-21.61-10-21.61s-1.24,15.46-5.78,23.09c-1.3,2.19-2.75,4.52-3.91,6.84A15.59,15.59,0,1,0,78.6,53.48Z" style="fill:#00aeef"/><path d="M139.44,58.13C131.83,51.31,130,42.36,130,34.91a31.32,31.32,0,0,1,8.79-21.42c4.71-4.71,11.85-8.39,23.93-8.39A67.24,67.24,0,0,1,174,6c3,0.55,5.41.78,8.32,1.18a0.74,0.74,0,0,1,.71.86c0,0.63-.24,1.57-0.39,4.39-0.16,2.59-.16,6.9-0.24,8.08s-0.24,1.65-.71,1.65-0.63-.55-0.63-1.65a10.86,10.86,0,0,0-3.29-8c-2.75-2.35-8.79-4.47-15.69-4.47-10.43,0-15.3,3.06-18,5.73C138.34,19.3,137,26.28,137,34.28c0,15,11.53,28.71,28.32,28.71,5.88,0,10.51-.71,13.65-3.92,1.65-1.73,2.67-5.18,2.9-6.59,0.16-.86.31-1.18,0.78-1.18s0.55,0.55.55,1.18a81.38,81.38,0,0,1-1.73,10,2.68,2.68,0,0,1-2,2.28c-3.14,1.26-9.1,1.8-14.12,1.8C153.56,66.6,145.64,63.7,139.44,58.13Z" style="fill:#231f20"/><path d="M240.8,31.07a0.41,0.41,0,0,0,.47-0.47V28.95c0-12.24,0-14.43-.16-16.94-0.16-2.67-.78-3.92-3.37-4.47a14.66,14.66,0,0,0-2.67-.24,0.55,0.55,0,0,1-.63-0.47c0-.47.39-0.63,1.26-0.63,3.53,0,8.47.24,8.86,0.24s5.33-.24,7.69-0.24c0.86,0,1.26.16,1.26,0.63a0.55,0.55,0,0,1-.63.47,11.65,11.65,0,0,0-2,.24c-2.12.39-2.75,1.73-2.9,4.47-0.16,2.51-.16,4.71-0.16,16.94V42.75c0,7.53,0,13.73.39,17,0.24,2.28.71,4,3.06,4.31a34.19,34.19,0,0,0,3.53.31,0.51,0.51,0,0,1,.63.47c0,0.39-.39.63-1.26,0.63-4.31,0-9.26-.24-9.65-0.24s-5.33.24-7.69,0.24c-0.86,0-1.26-.16-1.26-0.63a0.51,0.51,0,0,1,.63-0.47,12.1,12.1,0,0,0,2.35-.31c1.57-.31,2-2,2.28-4.31,0.39-3.29.39-9.49,0.39-17V34.52A0.45,0.45,0,0,0,240.8,34H207.54a0.41,0.41,0,0,0-.47.47v8.24c0,7.53,0,13.73.39,17,0.24,2.28.71,4,3.06,4.31a34.2,34.2,0,0,0,3.53.31,0.51,0.51,0,0,1,.63.47c0,0.39-.39.63-1.26,0.63-4.31,0-9.26-.24-9.65-0.24s-5.33.24-7.69,0.24c-0.86,0-1.26-.16-1.26-0.63a0.51,0.51,0,0,1,.63-0.47,12.1,12.1,0,0,0,2.35-.31c1.57-.31,2-2,2.28-4.31,0.39-3.29.39-9.49,0.39-17V28.95c0-12.24,0-14.43-.16-16.94-0.16-2.67-.78-3.92-3.37-4.47a14.67,14.67,0,0,0-2.67-.24,0.55,0.55,0,0,1-.63-0.47c0-.47.39-0.63,1.26-0.63,3.53,0,8.47.24,8.86,0.24s5.33-.24,7.69-0.24c0.86,0,1.26.16,1.26,0.63a0.55,0.55,0,0,1-.63.47,11.66,11.66,0,0,0-2,.24c-2.12.39-2.75,1.73-2.9,4.47-0.16,2.51-.16,4.71-0.16,16.94v1.65a0.41,0.41,0,0,0,.47.47H240.8Z" style="fill:#231f20"/><path d="M279.24,42.36a0.83,0.83,0,0,0-.78.63l-4.71,13.89a16.57,16.57,0,0,0-1.1,5.26c0,1.57,1.49,2.28,2.82,2.28h0.71c0.78,0,1,.16,1,0.47,0,0.47-.71.63-1.41,0.63-1.88,0-5-.24-5.88-0.24s-5.18.24-8.86,0.24c-1,0-1.49-.16-1.49-0.63,0-.31.39-0.47,1.1-0.47a16.62,16.62,0,0,0,1.88-.16c3.61-.47,5.18-3.45,6.59-7.37L286.93,8.16c0.94-2.59,1.26-3.06,1.73-3.06s0.78,0.39,1.73,2.82c1.18,3,13.49,35.38,18.28,47.3,2.82,7,5.1,8.24,6.75,8.71a10.34,10.34,0,0,0,3.06.47c0.47,0,.86.08,0.86,0.47s-0.71.63-1.57,0.63c-1.18,0-6.9,0-12.32-.16-1.49-.08-2.35-0.08-2.35-0.55a0.59,0.59,0,0,1,.55-0.55c0.47-.16.94-0.86,0.47-2.12l-7.3-19.3a0.69,0.69,0,0,0-.71-0.47H279.24Zm15.85-2.82c0.39,0,.39-0.24.31-0.55l-7.45-21.18q-0.59-1.77-1.18,0L279.87,39c-0.16.39,0,.55,0.24,0.55h15Z" style="fill:#231f20"/><path d="M327.18,42.36c0-28.32.16-18.12,0.08-33.34,0-3.06.24-3.92,0.86-3.92s2,1.73,2.75,2.51c1.18,1.33,12.87,14,24.95,26.91,7.77,8.32,16.32,17.89,18.83,20.48l-0.86-39.85c-0.08-5.1-.63-6.83-3.06-7.45a16.3,16.3,0,0,0-3.37-.39c-0.86,0-1.1-.24-1.1-0.55,0-.47.63-0.55,1.57-0.55,3.53,0,7.3.24,8.16,0.24s3.45-.24,6.67-0.24c0.86,0,1.41.08,1.41,0.55,0,0.31-.31.47-0.86,0.55s-1.1.16-2,.31c-2.2.47-2.75,1.65-2.75,7.06l-0.16,45.81c0,5.18-.16,5.57-0.71,5.57s-1.57-.86-5.73-5c-0.86-.78-12.16-12.32-20.47-21.26-9.1-9.81-18-19.69-20.48-22.51l1,37.58c0.16,6.43.94,8.47,3.06,9.1a17.2,17.2,0,0,0,3.92.47,0.51,0.51,0,0,1,.63.47c0,0.47-.47.63-1.41,0.63-4.47,0-7.61-.24-8.32-0.24s-4,.24-7.53.24c-0.78,0-1.26-.08-1.26-0.63a0.51,0.51,0,0,1,.63-0.47,11.25,11.25,0,0,0,3.22-.47c2-.55,2.35-2.82,2.35-10V42.36Z" style="fill:#231f20"/><path d="M404.06,28.95c0-12.24,0-14.43-.16-16.94-0.16-2.67-.78-3.92-3.37-4.47a18.45,18.45,0,0,0-2.27-.24c-0.55-.08-1-0.16-1-0.47,0-.47.39-0.63,1.26-0.63,1.8,0,3.92,0,8.86.24,0.55,0,16.16,0,18-.08a13.07,13.07,0,0,0,3.61-.47,1.91,1.91,0,0,1,.86-0.31c0.24,0,.31.31,0.31,0.71a34.17,34.17,0,0,0-.63,3.69c-0.08,1.18-.16,2.67-0.31,4.71-0.08.78-.31,1.33-0.63,1.33-0.47,0-.63-0.39-0.63-1a7.8,7.8,0,0,0-.39-2.59c-0.55-1.8-2.2-2.59-5.65-2.9-1.33-.16-9.88-0.24-10.75-0.24-0.31,0-.47.24-0.47,0.78V31.69c0,0.55.08,0.78,0.47,0.78,1,0,10.67,0,12.47-.16,2.12-.16,3.14-0.39,3.92-1.33a1.59,1.59,0,0,1,.94-0.78c0.24,0,.39.16,0.39,0.63s-0.39,1.8-.63,4.39c-0.24,2.43-.24,4.24-0.31,5.33-0.08.78-.24,1.18-0.55,1.18-0.47,0-.55-0.63-0.55-1.26a7.09,7.09,0,0,0-.31-2.2c-0.31-1.18-1.26-2.28-4.08-2.59-2.12-.24-9.88-0.39-11.22-0.39a0.5,0.5,0,0,0-.55.55v6.9c0,2.67-.08,11.77,0,13.41,0.16,3.22.63,4.94,2.59,5.73,1.33,0.55,3.45.71,6.51,0.71a26,26,0,0,0,7.06-.71c2.51-.78,3.37-2.43,4-5.81,0.16-.86.31-1.18,0.71-1.18s0.47,0.63.47,1.18-0.63,6-1,7.61c-0.55,2-1.18,2-4.24,2-5.81,0-8.39-.16-11.45-0.24s-6.75-.24-9.81-0.24c-1.88,0-3.77.31-5.81,0.24-0.86,0-1.26-.16-1.26-0.63a0.91,0.91,0,0,1,.86-0.47,10.12,10.12,0,0,0,1.8-.24c1.65-.39,2.67-1.49,2.82-7.37,0.08-3.06.16-7.06,0.16-14V28.95Z" style="fill:#231f20"/><path d="M461.72,45.19a16.64,16.64,0,0,0-1.8-8.24c-0.55-1.26-11.06-18.51-13.81-22.59a22,22,0,0,0-5.33-5.81A7.51,7.51,0,0,0,437.4,7.3a0.66,0.66,0,0,1-.78-0.55c0-.31.31-0.55,1-0.55,1.49,0,7.37.24,7.77,0.24,0.55,0,3.53-.24,6.59-0.24,0.86,0,1,.24,1,0.55s-0.47.39-1.18,0.71a1.59,1.59,0,0,0-1,1.41,6.69,6.69,0,0,0,1,3.06c1.25,2.28,13,22.51,14.43,24.79,1.49-3.29,11.45-20.48,13-23.06a7.66,7.66,0,0,0,1.33-4c0-1.1-.31-2-1.26-2.2-0.71-.24-1.18-0.39-1.18-0.78s0.47-.47,1.26-0.47c2,0,4.55.24,5.18,0.24,0.47,0,6.12-.24,7.61-0.24,0.55,0,1,.16,1,0.47s-0.39.63-1,.63a7.47,7.47,0,0,0-3.61,1.1,14.94,14.94,0,0,0-4.16,4c-2.59,3.14-13.57,21.57-15,24.95a18.77,18.77,0,0,0-1.18,7.84v6.75c0,1.26,0,4.55.24,7.84,0.16,2.28.86,4,3.22,4.31a34.2,34.2,0,0,0,3.53.31,0.51,0.51,0,0,1,.63.47c0,0.39-.39.63-1.26,0.63-4.31,0-9.26-.24-9.65-0.24s-5.33.24-7.69,0.24c-0.86,0-1.26-.16-1.26-0.63a0.51,0.51,0,0,1,.63-0.47,12.1,12.1,0,0,0,2.35-.31c1.57-.31,2.28-2,2.43-4.31,0.24-3.29.24-6.59,0.24-7.84V45.19Z" style="fill:#231f20"/><path d="M128.59,115.88V85.49h12.5a7.84,7.84,0,0,1,3.55.81,9.07,9.07,0,0,1,2.8,2.16,10.32,10.32,0,0,1,1.84,3,9.26,9.26,0,0,1,.66,3.4,10.35,10.35,0,0,1-.62,3.55,9.74,9.74,0,0,1-1.75,3,8.59,8.59,0,0,1-2.72,2.12,7.73,7.73,0,0,1-3.51.79H130.78v11.47h-2.18Zm2.18-13.48h10.48a5.77,5.77,0,0,0,2.7-.62,6.22,6.22,0,0,0,2-1.67,7.74,7.74,0,0,0,1.28-2.4,8.8,8.8,0,0,0,.45-2.8,7.65,7.65,0,0,0-.53-2.85,7.89,7.89,0,0,0-1.45-2.37,7,7,0,0,0-2.14-1.63,5.8,5.8,0,0,0-2.59-.6H130.78V102.4Z" style="fill:#231f20"/><path d="M187.56,85.49h1.88l12.84,30.38H200l-4.24-10H181.23l-4.24,10h-2.35Zm7.57,18.57-6.63-15.92-6.76,15.92h13.39Z" style="fill:#231f20"/><path d="M231.69,115.88V85.49h2.18v30.38h-2.18Z" style="fill:#231f20"/><path d="M268.79,89.6v26.28h-2.18V85.49h1.67l21.31,26.75V85.49h2.18v30.38h-2Z" style="fill:#231f20"/><path d="M345.69,87.46H334.56v28.42h-2.18V87.46H321.25v-2h24.44v2Z" style="fill:#231f20"/><path d="M375.17,115.88V85.49h2.18v30.38h-2.18Z" style="fill:#231f20"/><path d="M412.28,89.6v26.28h-2.18V85.49h1.67l21.31,26.75V85.49h2.18v30.38h-2Z" style="fill:#231f20"/><path d="M490.33,111.13q-4.41,5-10.23,5a12.51,12.51,0,0,1-5.71-1.33,14.53,14.53,0,0,1-4.51-3.51,16.7,16.7,0,0,1-3-5,15.62,15.62,0,0,1-1.07-5.65,16.24,16.24,0,0,1,1-5.78,16.06,16.06,0,0,1,2.91-4.92,14,14,0,0,1,4.43-3.4,12.54,12.54,0,0,1,5.61-1.26,15.68,15.68,0,0,1,4.09.49,12.43,12.43,0,0,1,3.25,1.37,10.42,10.42,0,0,1,2.48,2.1,13,13,0,0,1,1.78,2.67L489.65,93a9.77,9.77,0,0,0-4.09-4.34,12.11,12.11,0,0,0-5.76-1.35,10.26,10.26,0,0,0-4.88,1.16,12,12,0,0,0-3.72,3,13.58,13.58,0,0,0-2.35,4.28,15.22,15.22,0,0,0-.81,4.92,14.06,14.06,0,0,0,3.53,9.37,12.58,12.58,0,0,0,3.87,2.93,10.74,10.74,0,0,0,4.79,1.09,11.43,11.43,0,0,0,5.29-1.28,15.74,15.74,0,0,0,4.81-4.07v-5.86h-6.89v-1.75h8.77v14.76h-1.88v-4.75Z" style="fill:#231f20"/><rect x="128.74" y="72.34" width="363.21" height="4.36" style="fill:#231f20"/></svg>
