<svg><polygon points="9.13 74.08 45.85 110.03 79.5 75.66 79.59 2.12 9.13 74.08" style="fill:#a29588"/><polygon points="3.73 79.6 166.32 238.78 93.01 238.91 4.5 152.26 3.73 79.6" style="fill:#004259"/><polygon points="134.36 196.67 170.63 159.63 171.73 233.26 134.36 196.67" style="fill:#775e53"/><polygon points="179.33 99.33 180.66 224.73 224.04 180.43 223.64 142.78 179.33 99.33" style="fill:#004259"/><path d="M155.35,105.37c-3.39-5.74-8.84-11.56-13.83-17.32-12.47-14.41-21.13-45.6-21.13-45.6s-2.62,32.63-12.2,48.73c-2.75,4.62-5.8,9.55-8.25,14.43A32.9,32.9,0,1,0,155.35,105.37Z" style="fill:#00aeef"/></svg>
