<svg><style>.cls-1{fill:#a29588;}.cls-2{fill:#004259;}.cls-3{fill:#775e53;}.waterDrop{fill:#00aeef;}</style><polygon class="cls-1" points="2.53 9.47 6.9 13.75 10.91 9.66 10.92 0.91 2.53 9.47"/><polygon class="cls-2" points="1.89 10.13 21.24 29.08 12.52 29.09 1.98 18.78 1.89 10.13"/><polygon class="cls-3" points="17.44 24.06 21.75 19.66 21.89 28.42 17.44 24.06"/><polygon class="cls-2" points="22.79 12.48 22.95 27.4 28.11 22.13 28.06 17.65 22.79 12.48"/><path class="waterDrop" d="M19.94,13.2a15.78,15.78,0,0,0-1.65-2.06c-1.48-1.71-2.52-5.43-2.52-5.43s-0.31,3.88-1.45,5.8c-0.33.55-.69,1.14-1,1.72A3.92,3.92,0,1,0,19.94,13.2Z"/></svg>
